PathFileType	4	(X/Y/Z)	C:/Users/Rosti/Documents/GitHub/TechForParalysis/Code/Model/04122019 - Marker Volunteer01/Rosti Data/New Session 103.trc	
DataRate	CameraRate	NumFrames	NumMarkers	Units	OrigDataRate	OrigDataStartFrame	OrigNumFrames	
100.00	100.00	18	14	m	100.00	311	620	
Frame#	Time	C7			PX			T8			IJ			SC			AC			AI			TS			AA			GH			LE			ME			US			RS			
		X1	Y1	Z1	X2	Y2	Z2	X3	Y3	Z3	X4	Y4	Z4	X5	Y5	Z5	X6	Y6	Z6	X7	Y7	Z7	X8	Y8	Z8	X9	Y9	Z9	X10	Y10	Z10	X11	Y11	Z11	X12	Y12	Z12	X13	Y13	Z13	X14	Y14	Z14	

311	3.1	0.0276216	0.09934	0.16501	-0.0031274	-0.14292	-0.068929	0.0227391	-0.11527	0.231755	0	0	0	0.0251959	0.00749	0.004628	0.1716345	0.03904	0.070761	0.1096419	0.01805	0.200623	0.107323	-0.09785	0.231318	0.2261915	-0.00796	0.134377	0.2336495	0.00829	0.092856	0.3054175	-0.22235	-0.070577	0.2098065	-0.25868	-0.095937	0.1829915	0.00867	-0.089673	0.2463885	0.01007	-0.043575
312	3.11	0.0276454	0.09932	0.165026	-0.003092	-0.14294	-0.068903	0.022778	-0.11528	0.231768	0	0	0	0.0252195	0.00748	0.00465	0.1716594	0.03904	0.070751	0.1096668	0.01805	0.200621	0.1073643	-0.09784	0.231322	0.2262104	-0.00794	0.134379	0.2336954	0.00832	0.092845	0.3053974	-0.22238	-0.070536	0.2097494	-0.25867	-0.09585	0.1828494	0.00859	-0.089899	0.2463154	0.01008	-0.043884
313	3.12	0.0276722	0.09931	0.165043	-0.0030606	-0.14295	-0.068877	0.022819	-0.11529	0.231793	0	0	0	0.0252172	0.0075	0.004624	0.17169	0.03906	0.070739	0.1096911	0.01804	0.200624	0.1073996	-0.09784	0.231326	0.22624	-0.00792	0.134378	0.233747	0.00834	0.092838	0.305381	-0.22241	-0.070499	0.209708	-0.2587	-0.095773	0.182721	0.00851	-0.090066	0.246263	0.01008	-0.044127
314	3.13	0.0277002	0.0993	0.16506	-0.0030331	-0.14296	-0.068856	0.0228614	-0.11529	0.231828	0	0	0	0.0252162	0.00752	0.004606	0.1717188	0.03908	0.070729	0.1097161	0.01804	0.200629	0.1074301	-0.09785	0.231327	0.2262668	-0.00791	0.13437	0.2338018	0.00837	0.092835	0.3053718	-0.22244	-0.070472	0.2096968	-0.2588	-0.095691	0.1826108	0.00844	-0.090183	0.2462238	0.01009	-0.044308
315	3.14	0.0277254	0.0993	0.165079	-0.0030088	-0.14298	-0.068841	0.0229048	-0.11529	0.23187	0	0	0	0.0252247	0.00752	0.004606	0.1717426	0.0391	0.070723	0.1097413	0.01803	0.200634	0.1074588	-0.09787	0.231325	0.2262886	-0.0079	0.134356	0.2338526	0.0084	0.092833	0.3053646	-0.22248	-0.07046	0.2097266	-0.25899	-0.095596	0.1825236	0.00838	-0.090255	0.2461936	0.01009	-0.044436
316	3.15	0.0277441	0.09932	0.165105	-0.0029878	-0.14299	-0.068832	0.0229496	-0.1153	0.23192	0	0	0	0.0252409	0.00752	0.00462	0.1717649	0.03911	0.070721	0.1097659	0.01803	0.20064	0.1074894	-0.09788	0.231321	0.2263089	-0.0079	0.134335	0.2338979	0.00843	0.092831	0.3053479	-0.22251	-0.070463	0.2097919	-0.25922	-0.095485	0.1824579	0.00834	-0.090282	0.2461639	0.01008	-0.04452
317	3.16	0.027755	0.09935	0.165135	-0.0029707	-0.14299	-0.068829	0.0229964	-0.1153	0.231976	0	0	0	0.0252577	0.00752	0.004636	0.1717863	0.03914	0.070719	0.1097907	0.01804	0.200642	0.1075251	-0.09789	0.231314	0.2263343	-0.0079	0.13431	0.2339383	0.00846	0.092825	0.3053013	-0.22255	-0.070479	0.2098683	-0.25947	-0.095374	0.1824063	0.00832	-0.090275	0.2461203	0.01006	-0.044569
318	3.17	0.0277612	0.09938	0.165165	-0.0029569	-0.14299	-0.068832	0.0230458	-0.1153	0.232037	0	0	0	0.0252676	0.00752	0.004649	0.1718056	0.03916	0.070711	0.1098168	0.01806	0.20064	0.1075675	-0.0979	0.231305	0.2263636	-0.0079	0.134284	0.2339776	0.00849	0.092817	0.3052156	-0.22257	-0.070504	0.2099276	-0.25967	-0.095284	0.1823546	0.0083	-0.090244	0.2460496	0.01004	-0.044589
319	3.18	0.0277704	0.0994	0.165184	-0.0029451	-0.143	-0.068841	0.0230988	-0.11529	0.232102	0	0	0	0.0252747	0.00752	0.004658	0.1718192	0.03917	0.070699	0.109846	0.01807	0.200633	0.1076167	-0.0979	0.231294	0.2263962	-0.00789	0.134259	0.2340192	0.00851	0.092807	0.3051182	-0.22259	-0.070539	0.2099512	-0.2598	-0.09523	0.1822922	0.00826	-0.0902	0.2459572	0.01002	-0.044583
320	3.19	0.0277908	0.0994	0.165186	-0.0029347	-0.143	-0.068852	0.0231561	-0.11529	0.23217	0	0	0	0.0252884	0.00751	0.004663	0.1718327	0.03917	0.070684	0.1098809	0.01807	0.200621	0.1076719	-0.09789	0.23128	0.2264287	-0.00788	0.134235	0.2340617	0.00852	0.092794	0.3050377	-0.2226	-0.070584	0.2099377	-0.25986	-0.09521	0.1822147	0.00821	-0.090148	0.2458627	0.00999	-0.044559
321	3.2	0.0278256	0.09937	0.165172	-0.0029225	-0.14301	-0.068859	0.0232182	-0.11529	0.232239	0	0	0	0.0253092	0.0075	0.004666	0.1718534	0.03916	0.070667	0.1099239	0.01807	0.200606	0.1077313	-0.09789	0.231264	0.2264594	-0.00788	0.134206	0.2341104	0.00852	0.092771	0.3049844	-0.22261	-0.070634	0.2098954	-0.25988	-0.095211	0.1821274	0.00816	-0.090091	0.2457924	0.00996	-0.044524
322	3.21	0.0278725	0.09934	0.16515	-0.0029034	-0.14303	-0.068857	0.0232842	-0.11528	0.232306	0	0	0	0.0253297	0.0075	0.004671	0.1718837	0.03915	0.070648	0.109975	0.01806	0.200586	0.1077932	-0.09789	0.231245	0.2264887	-0.00789	0.134165	0.2341687	0.00851	0.092736	0.3049537	-0.22263	-0.070686	0.2098377	-0.25988	-0.095219	0.1820407	0.00812	-0.09004	0.2457597	0.00992	-0.044492
323	3.22	0.0279246	0.09932	0.165124	-0.0028764	-0.14304	-0.068846	0.0233521	-0.11526	0.232371	0	0	0	0.0253513	0.0075	0.004678	0.1719198	0.03914	0.070624	0.1100298	0.01806	0.200562	0.1078556	-0.09788	0.231226	0.2265208	-0.00789	0.134113	0.2342328	0.00852	0.092694	0.3049348	-0.22264	-0.070735	0.2097798	-0.25988	-0.095222	0.1819578	0.00809	-0.09001	0.2457528	0.00989	-0.044476
324	3.23	0.0279743	0.09932	0.165102	-0.0028451	-0.14305	-0.068827	0.0234196	-0.11524	0.232433	0	0	0	0.0253821	0.00751	0.004685	0.1719537	0.03915	0.070597	0.1100813	0.01808	0.200536	0.1079177	-0.09787	0.231208	0.2265657	-0.00788	0.134055	0.2342947	0.00854	0.092655	0.3049157	-0.22263	-0.070781	0.2097387	-0.25988	-0.095212	0.1818727	0.00807	-0.090012	0.2457427	0.00988	-0.044489
325	3.24	0.0280163	0.09934	0.165084	-0.002814	-0.14306	-0.068805	0.0234843	-0.11521	0.23249	0	0	0	0.0254221	0.00751	0.004691	0.1719839	0.03915	0.070569	0.1101228	0.0181	0.200511	0.1079789	-0.09784	0.231192	0.2266329	-0.00785	0.133998	0.2343489	0.00856	0.092619	0.3048889	-0.22261	-0.070827	0.2097219	-0.25991	-0.095187	0.1817769	0.00805	-0.090047	0.2457129	0.00988	-0.044543
326	3.25	0.0280508	0.09938	0.165068	-0.0027848	-0.14307	-0.068781	0.0235439	-0.11518	0.232544	0	0	0	0.0254641	0.00751	0.004695	0.1720109	0.03916	0.070543	0.110151	0.01813	0.200492	0.1080378	-0.09782	0.231177	0.2267249	-0.00782	0.133942	0.2343939	0.00859	0.092584	0.3048599	-0.22259	-0.070877	0.2097269	-0.25994	-0.095148	0.1816669	0.00803	-0.090107	0.2456519	0.00989	-0.044637
327	3.26	0.0280795	0.09942	0.165048	-0.0027579	-0.14307	-0.068757	0.023597	-0.11514	0.232591	0	0	0	0.0255012	0.0075	0.004693	0.1720334	0.03918	0.070521	0.1101668	0.01816	0.200479	0.1080928	-0.09779	0.231164	0.2268274	-0.00778	0.133891	0.2344284	0.00862	0.092545	0.3048354	-0.22255	-0.070928	0.2097474	-0.25999	-0.095101	0.1815464	0.00801	-0.090184	0.2455584	0.00993	-0.044773
328	3.27	0.0281019	0.09947	0.16503	-0.0027326	-0.14307	-0.068732	0.0236436	-0.1151	0.232633	0	0	0	0.02553	0.0075	0.004685	0.1720488	0.03921	0.070501	0.1101773	0.01821	0.200471	0.1081427	-0.09775	0.231154	0.2269118	-0.00773	0.133852	0.2344568	0.00867	0.092507	0.3048168	-0.22252	-0.070973	0.2097748	-0.26003	-0.095049	0.1814258	0.008	-0.090273	0.2454418	0.00998	-0.044945
